<svg width="80" height="58" viewBox="0 0 80 58" fill="none" xmlns="http://www.w3.org/2000/svg">
<g clip-path="url(#clip0_308_549)">
<mask id="mask0_308_549" style="mask-type:luminance" maskUnits="userSpaceOnUse" x="0" y="0" width="80" height="58">
<path d="M80 0H0V58H80V0Z" fill="white"/>
</mask>
<g mask="url(#mask0_308_549)">
<path d="M51.0908 58C58.758 58 66.1112 54.9446 71.5327 49.5061C76.9542 44.0675 80 36.6913 80 29C80 21.3087 76.9542 13.9325 71.5327 8.4939C66.1112 3.05535 58.758 0 51.0908 0V14.5116C54.9213 14.5116 58.5949 16.0381 61.3035 18.7552C64.0121 21.4723 65.5338 25.1574 65.5338 29C65.5338 32.8426 64.0121 36.5277 61.3035 39.2448C58.5949 41.9619 54.9213 43.4884 51.0908 43.4884V58Z" fill="white"/>
<path d="M14.2742 14.7204H0L14.2742 0.371216V14.7204Z" fill="white"/>
<path d="M28.5808 0.399048H14.2766V1.70057H28.5808V0.399048Z" fill="white"/>
<path d="M28.5808 3.00208H14.2766V4.3036H28.5808V3.00208Z" fill="white"/>
<path d="M28.5808 5.60742H14.2766V6.90894H28.5808V5.60742Z" fill="white"/>
<path d="M28.5808 8.21045H14.2766V9.51197H28.5808V8.21045Z" fill="white"/>
<path d="M28.5808 10.8135H14.2766V12.1151H28.5808V10.8135Z" fill="white"/>
<path d="M28.5808 13.4189H14.2766V14.7204H28.5808V13.4189Z" fill="white"/>
<path d="M42.8366 14.6902H28.56V29.0418H42.8366V14.6902Z" fill="white"/>
<path d="M15.7104 16.3374C15.7104 16.4792 15.6685 16.6178 15.59 16.7357C15.5115 16.8536 15.3999 16.9455 15.2693 16.9997C15.1387 17.054 14.995 17.0682 14.8564 17.0405C14.7177 17.0129 14.5904 16.9446 14.4905 16.8443C14.3905 16.7441 14.3225 16.6163 14.2949 16.4773C14.2673 16.3382 14.2815 16.1941 14.3356 16.0631C14.3896 15.9321 14.4812 15.8201 14.5988 15.7414C14.7163 15.6626 14.8545 15.6205 14.9958 15.6205C15.1853 15.6205 15.3671 15.6961 15.5011 15.8305C15.6351 15.965 15.7104 16.1473 15.7104 16.3374Z" fill="white"/>
<path d="M18.5667 16.3374C18.5667 16.4792 18.5248 16.6178 18.4462 16.7357C18.3677 16.8536 18.2561 16.9455 18.1255 16.9997C17.9949 17.054 17.8512 17.0682 17.7126 17.0405C17.574 17.0129 17.4466 16.9446 17.3467 16.8443C17.2468 16.7441 17.1787 16.6163 17.1511 16.4773C17.1235 16.3382 17.1377 16.1941 17.1918 16.0631C17.2459 15.9321 17.3375 15.8201 17.455 15.7414C17.5725 15.6626 17.7107 15.6205 17.852 15.6205C18.0416 15.6205 18.2233 15.6961 18.3573 15.8305C18.4914 15.965 18.5667 16.1473 18.5667 16.3374Z" fill="white"/>
<path d="M21.4206 16.3374C21.4206 16.4792 21.3787 16.6178 21.3002 16.7357C21.2216 16.8536 21.11 16.9455 20.9794 16.9997C20.8489 17.054 20.7052 17.0682 20.5666 17.0405C20.4279 17.0129 20.3006 16.9446 20.2006 16.8443C20.1007 16.7441 20.0326 16.6163 20.0051 16.4773C19.9775 16.3382 19.9916 16.1941 20.0457 16.0631C20.0998 15.9321 20.1914 15.8201 20.3089 15.7414C20.4265 15.6626 20.5646 15.6205 20.706 15.6205C20.8955 15.6205 21.0773 15.6961 21.2113 15.8305C21.3453 15.965 21.4206 16.1473 21.4206 16.3374Z" fill="white"/>
<path d="M24.2768 16.3374C24.2768 16.4792 24.2349 16.6178 24.1564 16.7357C24.0779 16.8536 23.9663 16.9455 23.8357 16.9997C23.7051 17.054 23.5614 17.0682 23.4228 17.0405C23.2841 17.0129 23.1568 16.9446 23.0569 16.8443C22.9569 16.7441 22.8889 16.6163 22.8613 16.4773C22.8337 16.3382 22.8479 16.1941 22.902 16.0631C22.956 15.9321 23.0476 15.8201 23.1652 15.7414C23.2827 15.6626 23.4209 15.6205 23.5622 15.6205C23.7517 15.6205 23.9335 15.6961 24.0675 15.8305C24.2015 15.965 24.2768 16.1473 24.2768 16.3374Z" fill="white"/>
<path d="M27.1284 16.3374C27.1284 16.4792 27.0865 16.6178 27.008 16.7357C26.9295 16.8536 26.8179 16.9455 26.6873 16.9997C26.5567 17.054 26.413 17.0682 26.2744 17.0405C26.1358 17.0129 26.0084 16.9446 25.9085 16.8443C25.8085 16.7441 25.7405 16.6163 25.7129 16.4773C25.6853 16.3382 25.6995 16.1941 25.7536 16.0631C25.8076 15.9321 25.8992 15.8201 26.0168 15.7414C26.1343 15.6626 26.2725 15.6205 26.4138 15.6205C26.6033 15.6205 26.7851 15.6961 26.9191 15.8305C27.0531 15.965 27.1284 16.1473 27.1284 16.3374Z" fill="white"/>
<path d="M15.7104 22.0655C15.7104 22.2073 15.6685 22.3459 15.59 22.4638C15.5115 22.5817 15.3999 22.6736 15.2693 22.7278C15.1387 22.7821 14.995 22.7963 14.8564 22.7686C14.7177 22.741 14.5904 22.6727 14.4905 22.5724C14.3905 22.4722 14.3225 22.3444 14.2949 22.2054C14.2673 22.0663 14.2815 21.9222 14.3356 21.7912C14.3896 21.6602 14.4812 21.5482 14.5988 21.4694C14.7163 21.3907 14.8545 21.3486 14.9958 21.3486C15.1853 21.3486 15.3671 21.4242 15.5011 21.5586C15.6351 21.693 15.7104 21.8754 15.7104 22.0655Z" fill="white"/>
<path d="M18.5667 22.0655C18.5667 22.2073 18.5248 22.3459 18.4462 22.4638C18.3677 22.5817 18.2561 22.6736 18.1255 22.7278C17.9949 22.7821 17.8512 22.7963 17.7126 22.7686C17.574 22.741 17.4466 22.6727 17.3467 22.5724C17.2468 22.4722 17.1787 22.3444 17.1511 22.2054C17.1235 22.0663 17.1377 21.9222 17.1918 21.7912C17.2459 21.6602 17.3375 21.5482 17.455 21.4694C17.5725 21.3907 17.7107 21.3486 17.852 21.3486C18.0416 21.3486 18.2233 21.4242 18.3573 21.5586C18.4914 21.693 18.5667 21.8754 18.5667 22.0655Z" fill="white"/>
<path d="M21.4206 22.0655C21.4206 22.2073 21.3787 22.3459 21.3002 22.4638C21.2216 22.5817 21.11 22.6736 20.9794 22.7278C20.8489 22.7821 20.7052 22.7963 20.5666 22.7686C20.4279 22.741 20.3006 22.6727 20.2006 22.5724C20.1007 22.4722 20.0326 22.3444 20.0051 22.2054C19.9775 22.0663 19.9916 21.9222 20.0457 21.7912C20.0998 21.6602 20.1914 21.5482 20.3089 21.4694C20.4265 21.3907 20.5646 21.3486 20.706 21.3486C20.8955 21.3486 21.0773 21.4242 21.2113 21.5586C21.3453 21.693 21.4206 21.8754 21.4206 22.0655Z" fill="white"/>
<path d="M24.2768 22.0655C24.2768 22.2073 24.2349 22.3459 24.1564 22.4638C24.0779 22.5817 23.9663 22.6736 23.8357 22.7278C23.7051 22.7821 23.5614 22.7963 23.4228 22.7686C23.2841 22.741 23.1568 22.6727 23.0569 22.5724C22.9569 22.4722 22.8889 22.3444 22.8613 22.2054C22.8337 22.0663 22.8479 21.9222 22.902 21.7912C22.956 21.6602 23.0476 21.5482 23.1652 21.4694C23.2827 21.3907 23.4209 21.3486 23.5622 21.3486C23.7517 21.3486 23.9335 21.4242 24.0675 21.5586C24.2015 21.693 24.2768 21.8754 24.2768 22.0655Z" fill="white"/>
<path d="M27.1284 22.0655C27.1284 22.2073 27.0865 22.3459 27.008 22.4638C26.9295 22.5817 26.8179 22.6736 26.6873 22.7278C26.5567 22.7821 26.413 22.7963 26.2744 22.7686C26.1358 22.741 26.0084 22.6727 25.9085 22.5724C25.8085 22.4722 25.7405 22.3444 25.7129 22.2054C25.6853 22.0663 25.6995 21.9222 25.7536 21.7912C25.8076 21.6602 25.8992 21.5482 26.0168 21.4694C26.1343 21.3907 26.2725 21.3486 26.4138 21.3486C26.6033 21.3486 26.7851 21.4242 26.9191 21.5586C27.0531 21.693 27.1284 21.8754 27.1284 22.0655Z" fill="white"/>
<path d="M17.1374 19.2096C17.1374 19.3514 17.0955 19.49 17.017 19.6079C16.9384 19.7258 16.8268 19.8177 16.6963 19.8719C16.5657 19.9262 16.422 19.9404 16.2833 19.9127C16.1447 19.8851 16.0174 19.8168 15.9174 19.7165C15.8175 19.6163 15.7494 19.4885 15.7219 19.3495C15.6943 19.2104 15.7084 19.0663 15.7625 18.9353C15.8166 18.8043 15.9082 18.6923 16.0257 18.6135C16.1433 18.5348 16.2814 18.4927 16.4228 18.4927C16.6123 18.4927 16.7941 18.5683 16.9281 18.7027C17.0621 18.8371 17.1374 19.0195 17.1374 19.2096Z" fill="white"/>
<path d="M19.9936 19.2096C19.9936 19.3514 19.9517 19.49 19.8732 19.6079C19.7947 19.7258 19.6831 19.8177 19.5525 19.8719C19.4219 19.9262 19.2782 19.9404 19.1396 19.9127C19.001 19.8851 18.8736 19.8168 18.7737 19.7165C18.6737 19.6163 18.6057 19.4885 18.5781 19.3495C18.5505 19.2104 18.5647 19.0663 18.6188 18.9353C18.6729 18.8043 18.7644 18.6923 18.882 18.6135C18.9995 18.5348 19.1377 18.4927 19.279 18.4927C19.4685 18.4927 19.6503 18.5683 19.7843 18.7027C19.9183 18.8371 19.9936 19.0195 19.9936 19.2096Z" fill="white"/>
<path d="M22.8476 19.2096C22.8476 19.3514 22.8057 19.49 22.7271 19.6079C22.6486 19.7258 22.537 19.8177 22.4064 19.8719C22.2758 19.9262 22.1321 19.9404 21.9935 19.9127C21.8549 19.8851 21.7276 19.8168 21.6276 19.7165C21.5277 19.6163 21.4596 19.4885 21.432 19.3495C21.4045 19.2104 21.4186 19.0663 21.4727 18.9353C21.5268 18.8043 21.6184 18.6923 21.7359 18.6135C21.8534 18.5348 21.9916 18.4927 22.1329 18.4927C22.3225 18.4927 22.5042 18.5683 22.6383 18.7027C22.7723 18.8371 22.8476 19.0195 22.8476 19.2096Z" fill="white"/>
<path d="M25.7038 19.2096C25.7038 19.3514 25.6619 19.49 25.5834 19.6079C25.5049 19.7258 25.3932 19.8177 25.2626 19.8719C25.1321 19.9262 24.9884 19.9404 24.8498 19.9127C24.7111 19.8851 24.5838 19.8168 24.4838 19.7165C24.3839 19.6163 24.3158 19.4885 24.2883 19.3495C24.2607 19.2104 24.2748 19.0663 24.3289 18.9353C24.383 18.8043 24.4746 18.6923 24.5921 18.6135C24.7097 18.5348 24.8478 18.4927 24.9892 18.4927C25.1787 18.4927 25.3605 18.5683 25.4945 18.7027C25.6285 18.8371 25.7038 19.0195 25.7038 19.2096Z" fill="white"/>
<path d="M28.5577 19.2096C28.5577 19.3514 28.5158 19.49 28.4373 19.6079C28.3588 19.7258 28.2472 19.8177 28.1166 19.8719C27.986 19.9262 27.8423 19.9404 27.7037 19.9127C27.565 19.8851 27.4377 19.8168 27.3378 19.7165C27.2378 19.6163 27.1698 19.4885 27.1422 19.3495C27.1146 19.2104 27.1288 19.0663 27.1829 18.9353C27.2369 18.8043 27.3285 18.6923 27.4461 18.6135C27.5636 18.5348 27.7017 18.4927 27.8431 18.4927C28.0326 18.4927 28.2144 18.5683 28.3484 18.7027C28.4824 18.8371 28.5577 19.0195 28.5577 19.2096Z" fill="white"/>
<path d="M17.1374 24.9307C17.1374 25.0725 17.0955 25.2111 17.017 25.329C16.9384 25.4469 16.8268 25.5388 16.6963 25.5931C16.5657 25.6473 16.422 25.6615 16.2833 25.6338C16.1447 25.6062 16.0174 25.5379 15.9174 25.4377C15.8175 25.3374 15.7494 25.2097 15.7219 25.0706C15.6943 24.9315 15.7084 24.7874 15.7625 24.6564C15.8166 24.5254 15.9082 24.4135 16.0257 24.3347C16.1433 24.2559 16.2814 24.2139 16.4228 24.2139C16.6123 24.2139 16.7941 24.2894 16.9281 24.4238C17.0621 24.5583 17.1374 24.7406 17.1374 24.9307Z" fill="white"/>
<path d="M19.9936 24.9307C19.9936 25.0725 19.9517 25.2111 19.8732 25.329C19.7947 25.4469 19.6831 25.5388 19.5525 25.5931C19.4219 25.6473 19.2782 25.6615 19.1396 25.6338C19.001 25.6062 18.8736 25.5379 18.7737 25.4377C18.6737 25.3374 18.6057 25.2097 18.5781 25.0706C18.5505 24.9315 18.5647 24.7874 18.6188 24.6564C18.6729 24.5254 18.7644 24.4135 18.882 24.3347C18.9995 24.2559 19.1377 24.2139 19.279 24.2139C19.4685 24.2139 19.6503 24.2894 19.7843 24.4238C19.9183 24.5583 19.9936 24.7406 19.9936 24.9307Z" fill="white"/>
<path d="M22.8476 24.9307C22.8476 25.0725 22.8057 25.2111 22.7271 25.329C22.6486 25.4469 22.537 25.5388 22.4064 25.5931C22.2758 25.6473 22.1321 25.6615 21.9935 25.6338C21.8549 25.6062 21.7276 25.5379 21.6276 25.4377C21.5277 25.3374 21.4596 25.2097 21.432 25.0706C21.4045 24.9315 21.4186 24.7874 21.4727 24.6564C21.5268 24.5254 21.6184 24.4135 21.7359 24.3347C21.8534 24.2559 21.9916 24.2139 22.1329 24.2139C22.3225 24.2139 22.5042 24.2894 22.6383 24.4238C22.7723 24.5583 22.8476 24.7406 22.8476 24.9307Z" fill="white"/>
<path d="M25.7038 24.9307C25.7038 25.0725 25.6619 25.2111 25.5834 25.329C25.5049 25.4469 25.3932 25.5388 25.2626 25.5931C25.1321 25.6473 24.9884 25.6615 24.8498 25.6338C24.7111 25.6062 24.5838 25.5379 24.4838 25.4377C24.3839 25.3374 24.3158 25.2097 24.2883 25.0706C24.2607 24.9315 24.2748 24.7874 24.3289 24.6564C24.383 24.5254 24.4746 24.4135 24.5921 24.3347C24.7097 24.2559 24.8478 24.2139 24.9892 24.2139C25.1787 24.2139 25.3605 24.2894 25.4945 24.4238C25.6285 24.5583 25.7038 24.7406 25.7038 24.9307Z" fill="white"/>
<path d="M28.5577 24.9307C28.5577 25.0725 28.5158 25.2111 28.4373 25.329C28.3588 25.4469 28.2472 25.5388 28.1166 25.5931C27.986 25.6473 27.8423 25.6615 27.7037 25.6338C27.565 25.6062 27.4377 25.5379 27.3378 25.4377C27.2378 25.3374 27.1698 25.2097 27.1422 25.0706C27.1146 24.9315 27.1288 24.7874 27.1829 24.6564C27.2369 24.5254 27.3285 24.4135 27.4461 24.3347C27.5636 24.2559 27.7017 24.2139 27.8431 24.2139C28.0326 24.2139 28.2144 24.2894 28.3484 24.4238C28.4824 24.5583 28.5577 24.7406 28.5577 24.9307Z" fill="white"/>
<path d="M15.7104 27.7959C15.7104 27.9377 15.6685 28.0763 15.59 28.1942C15.5115 28.3121 15.3999 28.404 15.2693 28.4582C15.1387 28.5125 14.995 28.5267 14.8564 28.499C14.7177 28.4714 14.5904 28.4031 14.4905 28.3028C14.3905 28.2026 14.3225 28.0748 14.2949 27.9358C14.2673 27.7967 14.2815 27.6526 14.3356 27.5216C14.3896 27.3906 14.4812 27.2786 14.5988 27.1998C14.7163 27.1211 14.8545 27.079 14.9958 27.079C15.1853 27.079 15.3671 27.1546 15.5011 27.289C15.6351 27.4234 15.7104 27.6058 15.7104 27.7959Z" fill="white"/>
<path d="M18.5667 27.7959C18.5667 27.9377 18.5248 28.0763 18.4462 28.1942C18.3677 28.3121 18.2561 28.404 18.1255 28.4582C17.9949 28.5125 17.8512 28.5267 17.7126 28.499C17.574 28.4714 17.4466 28.4031 17.3467 28.3028C17.2468 28.2026 17.1787 28.0748 17.1511 27.9358C17.1235 27.7967 17.1377 27.6526 17.1918 27.5216C17.2459 27.3906 17.3375 27.2786 17.455 27.1998C17.5725 27.1211 17.7107 27.079 17.852 27.079C18.0416 27.079 18.2233 27.1546 18.3573 27.289C18.4914 27.4234 18.5667 27.6058 18.5667 27.7959Z" fill="white"/>
<path d="M21.4206 27.7959C21.4206 27.9377 21.3787 28.0763 21.3002 28.1942C21.2216 28.3121 21.11 28.404 20.9794 28.4582C20.8489 28.5125 20.7052 28.5267 20.5666 28.499C20.4279 28.4714 20.3006 28.4031 20.2006 28.3028C20.1007 28.2026 20.0326 28.0748 20.0051 27.9358C19.9775 27.7967 19.9916 27.6526 20.0457 27.5216C20.0998 27.3906 20.1914 27.2786 20.3089 27.1998C20.4265 27.1211 20.5646 27.079 20.706 27.079C20.8955 27.079 21.0773 27.1546 21.2113 27.289C21.3453 27.4234 21.4206 27.6058 21.4206 27.7959Z" fill="white"/>
<path d="M24.2768 27.7959C24.2768 27.9377 24.2349 28.0763 24.1564 28.1942C24.0779 28.3121 23.9663 28.404 23.8357 28.4582C23.7051 28.5125 23.5614 28.5267 23.4228 28.499C23.2841 28.4714 23.1568 28.4031 23.0569 28.3028C22.9569 28.2026 22.8889 28.0748 22.8613 27.9358C22.8337 27.7967 22.8479 27.6526 22.902 27.5216C22.956 27.3906 23.0476 27.2786 23.1652 27.1998C23.2827 27.1211 23.4209 27.079 23.5622 27.079C23.7517 27.079 23.9335 27.1546 24.0675 27.289C24.2015 27.4234 24.2768 27.6058 24.2768 27.7959Z" fill="white"/>
<path d="M27.1284 27.7959C27.1284 27.9377 27.0865 28.0763 27.008 28.1942C26.9295 28.3121 26.8179 28.404 26.6873 28.4582C26.5567 28.5125 26.413 28.5267 26.2744 28.499C26.1358 28.4714 26.0084 28.4031 25.9085 28.3028C25.8085 28.2026 25.7405 28.0748 25.7129 27.9358C25.6853 27.7967 25.6995 27.6526 25.7536 27.5216C25.8076 27.3906 25.8992 27.2786 26.0168 27.1998C26.1343 27.1211 26.2725 27.079 26.4138 27.079C26.6033 27.079 26.7851 27.1546 26.9191 27.289C27.0531 27.4234 27.1284 27.6058 27.1284 27.7959Z" fill="white"/>
<path d="M28.53 57.6172H42.8065V43.2958H28.53V57.6172ZM29.8529 56.7797C29.7705 56.7797 29.69 56.7552 29.6216 56.7093C29.5531 56.6634 29.4998 56.5982 29.4682 56.5219C29.4367 56.4456 29.4285 56.3616 29.4446 56.2806C29.4606 56.1996 29.5003 56.1252 29.5585 56.0668C29.6167 56.0084 29.6909 55.9686 29.7716 55.9525C29.8524 55.9364 29.9361 55.9447 30.0121 55.9763C30.0882 56.0079 30.1532 56.0614 30.199 56.1301C30.2447 56.1987 30.2691 56.2795 30.2691 56.3621C30.2691 56.4169 30.2584 56.4713 30.2375 56.5219C30.2165 56.5726 30.1859 56.6186 30.1472 56.6574C30.1086 56.6962 30.0627 56.7269 30.0121 56.7479C29.9616 56.7689 29.9075 56.7797 29.8529 56.7797ZM29.8529 54.4156C29.7705 54.4156 29.69 54.3911 29.6216 54.3452C29.5531 54.2993 29.4998 54.2341 29.4682 54.1578C29.4367 54.0815 29.4285 53.9976 29.4446 53.9166C29.4606 53.8355 29.5003 53.7611 29.5585 53.7027C29.6167 53.6443 29.6909 53.6045 29.7716 53.5884C29.8524 53.5723 29.9361 53.5806 30.0121 53.6122C30.0882 53.6438 30.1532 53.6973 30.199 53.766C30.2447 53.8347 30.2691 53.9154 30.2691 53.998C30.2691 54.0529 30.2584 54.1071 30.2375 54.1578C30.2165 54.2085 30.1859 54.2545 30.1472 54.2933C30.1086 54.3321 30.0627 54.3629 30.0121 54.3838C29.9616 54.4048 29.9075 54.4156 29.8529 54.4156ZM29.8529 52.0515C29.7705 52.0515 29.69 52.027 29.6216 51.9811C29.5531 51.9353 29.4998 51.87 29.4682 51.7937C29.4367 51.7174 29.4285 51.6335 29.4446 51.5525C29.4606 51.4715 29.5003 51.3971 29.5585 51.3387C29.6167 51.2803 29.6909 51.2405 29.7716 51.2244C29.8524 51.2082 29.9361 51.2165 30.0121 51.2481C30.0882 51.2797 30.1532 51.3333 30.199 51.4019C30.2447 51.4706 30.2691 51.5513 30.2691 51.6339C30.2691 51.6888 30.2584 51.7431 30.2375 51.7937C30.2165 51.8444 30.1859 51.8904 30.1472 51.9292C30.1086 51.968 30.0627 51.9987 30.0121 52.0197C29.9616 52.0407 29.9075 52.0515 29.8529 52.0515ZM29.8529 49.7083C29.7705 49.7083 29.69 49.6838 29.6216 49.638C29.5531 49.5921 29.4998 49.5269 29.4682 49.4505C29.4367 49.3742 29.4285 49.2903 29.4446 49.2093C29.4606 49.1283 29.5003 49.0538 29.5585 48.9954C29.6167 48.937 29.6909 48.8973 29.7716 48.8812C29.8524 48.8651 29.9361 48.8733 30.0121 48.9049C30.0882 48.9365 30.1532 48.9901 30.199 49.0587C30.2447 49.1274 30.2691 49.2082 30.2691 49.2908C30.2691 49.3456 30.2584 49.3999 30.2375 49.4505C30.2165 49.5012 30.1859 49.5472 30.1472 49.586C30.1086 49.6248 30.0627 49.6556 30.0121 49.6765C29.9616 49.6975 29.9075 49.7083 29.8529 49.7083ZM29.8529 47.3651C29.7705 47.3651 29.69 47.3407 29.6216 47.2948C29.5531 47.2489 29.4998 47.1836 29.4682 47.1073C29.4367 47.031 29.4285 46.9471 29.4446 46.8661C29.4606 46.7851 29.5003 46.7107 29.5585 46.6523C29.6167 46.5939 29.6909 46.5541 29.7716 46.5379C29.8524 46.5218 29.9361 46.5301 30.0121 46.5617C30.0882 46.5933 30.1532 46.6468 30.199 46.7155C30.2447 46.7842 30.2691 46.8649 30.2691 46.9475C30.2691 47.0024 30.2584 47.0567 30.2375 47.1073C30.2165 47.158 30.1859 47.2041 30.1472 47.2428C30.1086 47.2816 30.0627 47.3124 30.0121 47.3334C29.9616 47.3543 29.9075 47.3651 29.8529 47.3651ZM29.8529 45.0219C29.7705 45.0219 29.69 44.9974 29.6216 44.9515C29.5531 44.9057 29.4998 44.8404 29.4682 44.7641C29.4367 44.6878 29.4285 44.6039 29.4446 44.5229C29.4606 44.4418 29.5003 44.3674 29.5585 44.309C29.6167 44.2506 29.6909 44.2109 29.7716 44.1948C29.8524 44.1786 29.9361 44.1869 30.0121 44.2185C30.0882 44.2501 30.1532 44.3037 30.199 44.3723C30.2447 44.441 30.2691 44.5217 30.2691 44.6043C30.2691 44.6592 30.2584 44.7135 30.2375 44.7641C30.2165 44.8148 30.1859 44.8608 30.1472 44.8996C30.1086 44.9384 30.0627 44.9691 30.0121 44.9901C29.9616 45.0111 29.9075 45.0219 29.8529 45.0219ZM32.1887 56.7774C32.1064 56.7774 32.0259 56.7529 31.9574 56.707C31.889 56.6611 31.8356 56.5959 31.8041 56.5196C31.7726 56.4433 31.7644 56.3593 31.7804 56.2783C31.7965 56.1973 31.8361 56.1229 31.8944 56.0645C31.9526 56.0061 32.0268 55.9663 32.1075 55.9502C32.1883 55.9341 32.272 55.9423 32.348 55.974C32.4241 56.0056 32.4891 56.0591 32.5348 56.1278C32.5806 56.1964 32.605 56.2772 32.605 56.3598C32.605 56.4146 32.5942 56.4689 32.5733 56.5196C32.5524 56.5702 32.5217 56.6163 32.4831 56.6551C32.4444 56.6938 32.3985 56.7246 32.348 56.7456C32.2975 56.7666 32.2434 56.7774 32.1887 56.7774ZM32.1887 54.4133C32.1064 54.4133 32.0259 54.3888 31.9574 54.3429C31.889 54.297 31.8356 54.2318 31.8041 54.1555C31.7726 54.0792 31.7644 53.9952 31.7804 53.9142C31.7965 53.8332 31.8361 53.7588 31.8944 53.7004C31.9526 53.642 32.0268 53.6022 32.1075 53.5861C32.1883 53.57 32.272 53.5783 32.348 53.6099C32.4241 53.6415 32.4891 53.695 32.5348 53.7637C32.5806 53.8324 32.605 53.9131 32.605 53.9957C32.605 54.1065 32.5611 54.2127 32.4831 54.291C32.405 54.3693 32.2991 54.4133 32.1887 54.4133ZM32.1887 52.0492C32.1064 52.0492 32.0259 52.0247 31.9574 51.9788C31.889 51.933 31.8356 51.8677 31.8041 51.7914C31.7726 51.7151 31.7644 51.6312 31.7804 51.5501C31.7965 51.4691 31.8361 51.3947 31.8944 51.3363C31.9526 51.2779 32.0268 51.2382 32.1075 51.2221C32.1883 51.2059 32.272 51.2142 32.348 51.2458C32.4241 51.2774 32.4891 51.3309 32.5348 51.3996C32.5806 51.4683 32.605 51.549 32.605 51.6316C32.605 51.6864 32.5942 51.7408 32.5733 51.7914C32.5524 51.8421 32.5217 51.8881 32.4831 51.9269C32.4444 51.9657 32.3985 51.9964 32.348 52.0174C32.2975 52.0384 32.2434 52.0492 32.1887 52.0492ZM32.1887 49.706C32.1064 49.706 32.0259 49.6815 31.9574 49.6356C31.889 49.5897 31.8356 49.5245 31.8041 49.4482C31.7726 49.3719 31.7644 49.288 31.7804 49.207C31.7965 49.126 31.8361 49.0515 31.8944 48.9931C31.9526 48.9347 32.0268 48.8949 32.1075 48.8788C32.1883 48.8627 32.272 48.871 32.348 48.9026C32.4241 48.9342 32.4891 48.9877 32.5348 49.0564C32.5806 49.1251 32.605 49.2058 32.605 49.2884C32.605 49.3992 32.5611 49.5054 32.4831 49.5837C32.405 49.662 32.2991 49.706 32.1887 49.706ZM32.1887 47.3628C32.1064 47.3628 32.0259 47.3383 31.9574 47.2924C31.889 47.2465 31.8356 47.1813 31.8041 47.105C31.7726 47.0287 31.7644 46.9447 31.7804 46.8637C31.7965 46.7827 31.8361 46.7083 31.8944 46.6499C31.9526 46.5915 32.0268 46.5518 32.1075 46.5356C32.1883 46.5195 32.272 46.5278 32.348 46.5594C32.4241 46.591 32.4891 46.6445 32.5348 46.7132C32.5806 46.7819 32.605 46.8626 32.605 46.9452C32.605 47.056 32.5611 47.1622 32.4831 47.2405C32.405 47.3188 32.2991 47.3628 32.1887 47.3628ZM32.1887 45.0196C32.1064 45.0196 32.0259 44.9951 31.9574 44.9492C31.889 44.9034 31.8356 44.8381 31.8041 44.7618C31.7726 44.6855 31.7644 44.6016 31.7804 44.5205C31.7965 44.4395 31.8361 44.3651 31.8944 44.3067C31.9526 44.2483 32.0268 44.2085 32.1075 44.1924C32.1883 44.1763 32.272 44.1846 32.348 44.2162C32.4241 44.2478 32.4891 44.3013 32.5348 44.37C32.5806 44.4387 32.605 44.5194 32.605 44.602C32.605 44.7128 32.5611 44.819 32.4831 44.8973C32.405 44.9756 32.2991 45.0196 32.1887 45.0196ZM34.5246 56.7751C34.4422 56.7751 34.3618 56.7506 34.2933 56.7047C34.2249 56.6588 34.1715 56.5936 34.14 56.5172C34.1085 56.4409 34.1002 56.357 34.1163 56.276C34.1324 56.195 34.172 56.1206 34.2302 56.0622C34.2884 56.0038 34.3626 55.964 34.4434 55.9479C34.5241 55.9318 34.6078 55.94 34.6839 55.9717C34.76 56.0033 34.825 56.0568 34.8707 56.1254C34.9165 56.1941 34.9409 56.2749 34.9409 56.3574C34.9409 56.4682 34.897 56.5744 34.8189 56.6528C34.7409 56.7311 34.635 56.7751 34.5246 56.7751ZM34.5246 54.411C34.4422 54.411 34.3618 54.3865 34.2933 54.3406C34.2249 54.2947 34.1715 54.2295 34.14 54.1532C34.1085 54.0769 34.1002 53.9929 34.1163 53.9119C34.1324 53.8309 34.172 53.7565 34.2302 53.6981C34.2884 53.6397 34.3626 53.5999 34.4434 53.5838C34.5241 53.5677 34.6078 53.5759 34.6839 53.6075C34.76 53.6392 34.825 53.6927 34.8707 53.7614C34.9165 53.83 34.9409 53.9108 34.9409 53.9934C34.9409 54.1041 34.897 54.2103 34.8189 54.2886C34.7409 54.367 34.635 54.411 34.5246 54.411ZM34.5246 52.0469C34.4422 52.0469 34.3618 52.0224 34.2933 51.9765C34.2249 51.9306 34.1715 51.8654 34.14 51.7891C34.1085 51.7128 34.1002 51.6288 34.1163 51.5478C34.1324 51.4668 34.172 51.3924 34.2302 51.334C34.2884 51.2756 34.3626 51.2358 34.4434 51.2197C34.5241 51.2036 34.6078 51.2119 34.6839 51.2435C34.76 51.2751 34.825 51.3286 34.8707 51.3973C34.9165 51.466 34.9409 51.5467 34.9409 51.6293C34.9409 51.7401 34.897 51.8463 34.8189 51.9246C34.7409 52.0029 34.635 52.0469 34.5246 52.0469ZM34.5246 49.7037C34.4422 49.7037 34.3618 49.6792 34.2933 49.6333C34.2249 49.5874 34.1715 49.5222 34.14 49.4459C34.1085 49.3696 34.1002 49.2856 34.1163 49.2046C34.1324 49.1236 34.172 49.0492 34.2302 48.9908C34.2884 48.9324 34.3626 48.8926 34.4434 48.8765C34.5241 48.8604 34.6078 48.8687 34.6839 48.9003C34.76 48.9319 34.825 48.9854 34.8707 49.0541C34.9165 49.1228 34.9409 49.2035 34.9409 49.2861C34.9409 49.3968 34.897 49.5031 34.8189 49.5814C34.7409 49.6597 34.635 49.7037 34.5246 49.7037ZM34.5246 47.3605C34.4422 47.3605 34.3618 47.336 34.2933 47.2901C34.2249 47.2442 34.1715 47.179 34.14 47.1027C34.1085 47.0264 34.1002 46.9424 34.1163 46.8614C34.1324 46.7804 34.172 46.706 34.2302 46.6476C34.2884 46.5892 34.3626 46.5494 34.4434 46.5333C34.5241 46.5172 34.6078 46.5255 34.6839 46.5571C34.76 46.5887 34.825 46.6422 34.8707 46.7109C34.9165 46.7796 34.9409 46.8603 34.9409 46.9429C34.9409 47.0536 34.897 47.1599 34.8189 47.2382C34.7409 47.3165 34.635 47.3605 34.5246 47.3605ZM34.5246 45.0173C34.4422 45.0173 34.3618 44.9928 34.2933 44.9469C34.2249 44.901 34.1715 44.8358 34.14 44.7595C34.1085 44.6832 34.1002 44.5992 34.1163 44.5182C34.1324 44.4372 34.172 44.3628 34.2302 44.3044C34.2884 44.246 34.3626 44.2062 34.4434 44.1901C34.5241 44.174 34.6078 44.1823 34.6839 44.2139C34.76 44.2455 34.825 44.299 34.8707 44.3677C34.9165 44.4364 34.9409 44.5171 34.9409 44.5997C34.9409 44.7105 34.897 44.8167 34.8189 44.895C34.7409 44.9733 34.635 45.0173 34.5246 45.0173ZM36.8605 56.7727C36.7781 56.7727 36.6976 56.7482 36.6292 56.7024C36.5607 56.6565 36.5074 56.5913 36.4758 56.5149C36.4443 56.4386 36.4361 56.3547 36.4522 56.2737C36.4682 56.1926 36.5079 56.1182 36.5661 56.0598C36.6243 56.0014 36.6985 55.9617 36.7792 55.9456C36.86 55.9295 36.9437 55.9377 37.0198 55.9693C37.0958 56.0009 37.1608 56.0545 37.2066 56.1231C37.2523 56.1918 37.2767 56.2726 37.2767 56.3551C37.2767 56.4659 37.2329 56.5721 37.1548 56.6504C37.0768 56.7287 36.9709 56.7727 36.8605 56.7727ZM36.8605 54.4087C36.7781 54.4087 36.6976 54.3842 36.6292 54.3383C36.5607 54.2924 36.5074 54.2272 36.4758 54.1509C36.4443 54.0746 36.4361 53.9906 36.4522 53.9096C36.4682 53.8286 36.5079 53.7542 36.5661 53.6958C36.6243 53.6374 36.6985 53.5976 36.7792 53.5815C36.86 53.5654 36.9437 53.5736 37.0198 53.6052C37.0958 53.6369 37.1608 53.6904 37.2066 53.7591C37.2523 53.8277 37.2767 53.9084 37.2767 53.991C37.2767 54.0459 37.266 54.1002 37.2451 54.1509C37.2241 54.2015 37.1935 54.2476 37.1548 54.2863C37.1162 54.3251 37.0703 54.3559 37.0198 54.3769C36.9693 54.3979 36.9151 54.4087 36.8605 54.4087ZM36.8605 52.0446C36.7781 52.0446 36.6976 52.0201 36.6292 51.9742C36.5607 51.9283 36.5074 51.8631 36.4758 51.7868C36.4443 51.7105 36.4361 51.6265 36.4522 51.5455C36.4682 51.4645 36.5079 51.3901 36.5661 51.3317C36.6243 51.2733 36.6985 51.2335 36.7792 51.2174C36.86 51.2013 36.9437 51.2096 37.0198 51.2412C37.0958 51.2728 37.1608 51.3263 37.2066 51.395C37.2523 51.4636 37.2767 51.5444 37.2767 51.627C37.2767 51.7377 37.2329 51.844 37.1548 51.9223C37.0768 52.0006 36.9709 52.0446 36.8605 52.0446ZM36.8605 49.7014C36.7781 49.7014 36.6976 49.6769 36.6292 49.631C36.5607 49.5851 36.5074 49.5199 36.4758 49.4436C36.4443 49.3673 36.4361 49.2833 36.4522 49.2023C36.4682 49.1213 36.5079 49.0469 36.5661 48.9885C36.6243 48.9301 36.6985 48.8903 36.7792 48.8742C36.86 48.8581 36.9437 48.8663 37.0198 48.8979C37.0958 48.9296 37.1608 48.9831 37.2066 49.0518C37.2523 49.1204 37.2767 49.2012 37.2767 49.2838C37.2767 49.3945 37.2329 49.5007 37.1548 49.5791C37.0768 49.6574 36.9709 49.7014 36.8605 49.7014ZM36.8605 47.3582C36.7781 47.3582 36.6976 47.3337 36.6292 47.2878C36.5607 47.2419 36.5074 47.1767 36.4758 47.1004C36.4443 47.0241 36.4361 46.9401 36.4522 46.8591C36.4682 46.7781 36.5079 46.7037 36.5661 46.6453C36.6243 46.5869 36.6985 46.5471 36.7792 46.531C36.86 46.5149 36.9437 46.5232 37.0198 46.5548C37.0958 46.5864 37.1608 46.6399 37.2066 46.7086C37.2523 46.7773 37.2767 46.858 37.2767 46.9406C37.2767 47.0513 37.2329 47.1576 37.1548 47.2359C37.0768 47.3142 36.9709 47.3582 36.8605 47.3582ZM36.8605 45.015C36.7781 45.015 36.6976 44.9905 36.6292 44.9446C36.5607 44.8987 36.5074 44.8335 36.4758 44.7572C36.4443 44.6809 36.4361 44.5969 36.4522 44.5159C36.4682 44.4349 36.5079 44.3605 36.5661 44.3021C36.6243 44.2437 36.6985 44.2039 36.7792 44.1878C36.86 44.1717 36.9437 44.18 37.0198 44.2116C37.0958 44.2432 37.1608 44.2967 37.2066 44.3654C37.2523 44.434 37.2767 44.5148 37.2767 44.5974C37.2767 44.7081 37.2329 44.8144 37.1548 44.8927C37.0768 44.971 36.9709 45.015 36.8605 45.015ZM39.1963 56.7704C39.114 56.7704 39.0335 56.7459 38.965 56.7001C38.8966 56.6542 38.8432 56.5889 38.8117 56.5126C38.7802 56.4363 38.772 56.3524 38.788 56.2714C38.8041 56.1903 38.8437 56.1159 38.902 56.0575C38.9602 55.9991 39.0344 55.9593 39.1151 55.9432C39.1959 55.9271 39.2796 55.9354 39.3556 55.967C39.4317 55.9986 39.4967 56.0521 39.5425 56.1208C39.5882 56.1895 39.6126 56.2702 39.6126 56.3528C39.6126 56.4636 39.5687 56.5698 39.4907 56.6481C39.4126 56.7264 39.3067 56.7704 39.1963 56.7704ZM39.1963 54.4063C39.114 54.4063 39.0335 54.3818 38.965 54.3359C38.8966 54.2901 38.8432 54.2248 38.8117 54.1485C38.7802 54.0722 38.772 53.9883 38.788 53.9073C38.8041 53.8263 38.8437 53.7519 38.902 53.6935C38.9602 53.6351 39.0344 53.5953 39.1151 53.5792C39.1959 53.563 39.2796 53.5713 39.3556 53.6029C39.4317 53.6345 39.4967 53.688 39.5425 53.7567C39.5882 53.8254 39.6126 53.9061 39.6126 53.9887C39.6126 54.0995 39.5687 54.2057 39.4907 54.284C39.4126 54.3623 39.3067 54.4063 39.1963 54.4063ZM39.1963 52.0422C39.114 52.0422 39.0335 52.0178 38.965 51.9719C38.8966 51.926 38.8432 51.8608 38.8117 51.7845C38.7802 51.7082 38.772 51.6242 38.788 51.5432C38.8041 51.4622 38.8437 51.3878 38.902 51.3294C38.9602 51.271 39.0344 51.2312 39.1151 51.2151C39.1959 51.199 39.2796 51.2072 39.3556 51.2388C39.4317 51.2704 39.4967 51.324 39.5425 51.3926C39.5882 51.4613 39.6126 51.5421 39.6126 51.6247C39.6126 51.7354 39.5687 51.8416 39.4907 51.9199C39.4126 51.9983 39.3067 52.0422 39.1963 52.0422ZM39.1963 49.6991C39.114 49.6991 39.0335 49.6746 38.965 49.6287C38.8966 49.5828 38.8432 49.5176 38.8117 49.4413C38.7802 49.365 38.772 49.281 38.788 49.2C38.8041 49.119 38.8437 49.0446 38.902 48.9862C38.9602 48.9278 39.0344 48.888 39.1151 48.8719C39.1959 48.8558 39.2796 48.864 39.3556 48.8956C39.4317 48.9273 39.4967 48.9808 39.5425 49.0495C39.5882 49.1181 39.6126 49.1988 39.6126 49.2814C39.6126 49.3922 39.5687 49.4984 39.4907 49.5768C39.4126 49.6551 39.3067 49.6991 39.1963 49.6991ZM39.1963 47.3558C39.114 47.3558 39.0335 47.3313 38.965 47.2855C38.8966 47.2396 38.8432 47.1744 38.8117 47.0981C38.7802 47.0217 38.772 46.9378 38.788 46.8568C38.8041 46.7758 38.8437 46.7014 38.902 46.643C38.9602 46.5846 39.0344 46.5448 39.1151 46.5287C39.1959 46.5126 39.2796 46.5208 39.3556 46.5524C39.4317 46.584 39.4967 46.6376 39.5425 46.7062C39.5882 46.7749 39.6126 46.8557 39.6126 46.9383C39.6126 46.9931 39.6019 47.0474 39.5809 47.0981C39.56 47.1487 39.5293 47.1948 39.4907 47.2335C39.452 47.2723 39.4061 47.3031 39.3556 47.3241C39.3051 47.3451 39.251 47.3558 39.1963 47.3558ZM39.1963 45.0127C39.114 45.0127 39.0335 44.9882 38.965 44.9423C38.8966 44.8964 38.8432 44.8312 38.8117 44.7549C38.7802 44.6786 38.772 44.5946 38.788 44.5136C38.8041 44.4326 38.8437 44.3582 38.902 44.2998C38.9602 44.2414 39.0344 44.2016 39.1151 44.1855C39.1959 44.1694 39.2796 44.1776 39.3556 44.2092C39.4317 44.2408 39.4967 44.2944 39.5425 44.3631C39.5882 44.4317 39.6126 44.5125 39.6126 44.5951C39.6126 44.6499 39.6019 44.7042 39.5809 44.7549C39.56 44.8055 39.5293 44.8516 39.4907 44.8903C39.452 44.9291 39.4061 44.9599 39.3556 44.9809C39.3051 45.0018 39.251 45.0127 39.1963 45.0127ZM41.5322 56.7681C41.4498 56.7681 41.3694 56.7436 41.3009 56.6977C41.2325 56.6518 41.1791 56.5866 41.1476 56.5103C41.1161 56.434 41.1078 56.35 41.1239 56.269C41.14 56.188 41.1796 56.1136 41.2378 56.0552C41.296 55.9968 41.3702 55.957 41.451 55.9409C41.5317 55.9248 41.6154 55.9331 41.6915 55.9647C41.7676 55.9963 41.8326 56.0498 41.8783 56.1185C41.9241 56.1872 41.9485 56.2679 41.9485 56.3505C41.9485 56.4613 41.9046 56.5675 41.8265 56.6458C41.7485 56.7241 41.6426 56.7681 41.5322 56.7681ZM41.5322 54.404C41.4498 54.404 41.3694 54.3795 41.3009 54.3336C41.2325 54.2878 41.1791 54.2225 41.1476 54.1462C41.1161 54.0699 41.1078 53.986 41.1239 53.9049C41.14 53.8239 41.1796 53.7495 41.2378 53.6911C41.296 53.6327 41.3702 53.593 41.451 53.5769C41.5317 53.5607 41.6154 53.569 41.6915 53.6006C41.7676 53.6322 41.8326 53.6857 41.8783 53.7544C41.9241 53.8231 41.9485 53.9038 41.9485 53.9864C41.9485 54.0972 41.9046 54.2034 41.8265 54.2817C41.7485 54.36 41.6426 54.404 41.5322 54.404ZM41.5322 52.0399C41.4498 52.0399 41.3694 52.0155 41.3009 51.9696C41.2325 51.9237 41.1791 51.8585 41.1476 51.7822C41.1161 51.7059 41.1078 51.6219 41.1239 51.5409C41.14 51.4599 41.1796 51.3855 41.2378 51.3271C41.296 51.2687 41.3702 51.2289 41.451 51.2127C41.5317 51.1966 41.6154 51.2049 41.6915 51.2365C41.7676 51.2681 41.8326 51.3216 41.8783 51.3903C41.9241 51.459 41.9485 51.5397 41.9485 51.6223C41.9485 51.6772 41.9377 51.7315 41.9168 51.7822C41.8959 51.8328 41.8652 51.8789 41.8265 51.9176C41.7879 51.9564 41.742 51.9872 41.6915 52.0082C41.641 52.0291 41.5868 52.0399 41.5322 52.0399ZM41.5322 49.6967C41.4498 49.6967 41.3694 49.6722 41.3009 49.6263C41.2325 49.5805 41.1791 49.5152 41.1476 49.4389C41.1161 49.3626 41.1078 49.2787 41.1239 49.1976C41.14 49.1166 41.1796 49.0422 41.2378 48.9838C41.296 48.9254 41.3702 48.8857 41.451 48.8696C41.5317 48.8534 41.6154 48.8617 41.6915 48.8933C41.7676 48.9249 41.8326 48.9785 41.8783 49.0471C41.9241 49.1158 41.9485 49.1965 41.9485 49.2791C41.9485 49.334 41.9377 49.3883 41.9168 49.4389C41.8959 49.4896 41.8652 49.5356 41.8265 49.5744C41.7879 49.6132 41.742 49.6439 41.6915 49.6649C41.641 49.6859 41.5868 49.6967 41.5322 49.6967ZM41.5322 47.3535C41.4498 47.3535 41.3694 47.329 41.3009 47.2832C41.2325 47.2373 41.1791 47.1721 41.1476 47.0958C41.1161 47.0194 41.1078 46.9355 41.1239 46.8545C41.14 46.7735 41.1796 46.699 41.2378 46.6406C41.296 46.5822 41.3702 46.5425 41.451 46.5264C41.5317 46.5103 41.6154 46.5185 41.6915 46.5501C41.7676 46.5817 41.8326 46.6353 41.8783 46.7039C41.9241 46.7726 41.9485 46.8533 41.9485 46.9359C41.9485 47.0467 41.9046 47.1529 41.8265 47.2312C41.7485 47.3095 41.6426 47.3535 41.5322 47.3535ZM41.5322 45.0103C41.4498 45.0103 41.3694 44.9859 41.3009 44.94C41.2325 44.8941 41.1791 44.8288 41.1476 44.7525C41.1161 44.6762 41.1078 44.5923 41.1239 44.5113C41.14 44.4303 41.1796 44.3559 41.2378 44.2975C41.296 44.2391 41.3702 44.1993 41.451 44.1831C41.5317 44.167 41.6154 44.1753 41.6915 44.2069C41.7676 44.2385 41.8326 44.292 41.8783 44.3607C41.9241 44.4294 41.9485 44.5101 41.9485 44.5927C41.9485 44.7035 41.9046 44.8097 41.8265 44.888C41.7485 44.9663 41.6426 45.0103 41.5322 45.0103Z" fill="white"/>
<path d="M14.2927 15.9825H0.0161743V17.284H14.2927V15.9825Z" fill="white"/>
<path d="M14.2927 18.5855H0.0161743V19.887H14.2927V18.5855Z" fill="white"/>
<path d="M14.2927 21.1885H0.0161743V22.4901H14.2927V21.1885Z" fill="white"/>
<path d="M14.2927 23.7939H0.0161743V25.0955H14.2927V23.7939Z" fill="white"/>
<path d="M14.2927 26.397H0.0161743V27.6985H14.2927V26.397Z" fill="white"/>
<path d="M0.00924683 57.6149H14.2881V29.0116H0.00924683V57.6149ZM1.33676 42.6671C1.22378 42.6671 1.11333 42.6335 1.01939 42.5705C0.925451 42.5076 0.852233 42.4181 0.808996 42.3134C0.76576 42.2087 0.754448 42.0934 0.776489 41.9823C0.798531 41.8711 0.852937 41.769 0.932827 41.6889C1.01272 41.6087 1.1145 41.5542 1.22531 41.532C1.33613 41.5099 1.45098 41.5213 1.55537 41.5646C1.65975 41.608 1.74896 41.6815 1.81173 41.7757C1.8745 41.8699 1.90801 41.9807 1.90801 42.0941C1.90801 42.2461 1.84782 42.3918 1.74069 42.4993C1.63356 42.6067 1.48826 42.6671 1.33676 42.6671ZM1.33676 40.303C1.22378 40.303 1.11333 40.2694 1.01939 40.2065C0.925451 40.1435 0.852233 40.054 0.808996 39.9493C0.76576 39.8446 0.754448 39.7294 0.776489 39.6182C0.798531 39.507 0.852937 39.4049 0.932827 39.3248C1.01272 39.2447 1.1145 39.1901 1.22531 39.168C1.33613 39.1459 1.45098 39.1572 1.55537 39.2006C1.65975 39.2439 1.74896 39.3174 1.81173 39.4116C1.8745 39.5059 1.90801 39.6167 1.90801 39.73C1.90801 39.882 1.84782 40.0277 1.74069 40.1352C1.63356 40.2427 1.48826 40.303 1.33676 40.303ZM1.33676 37.939C1.22378 37.939 1.11333 37.9053 1.01939 37.8424C0.925451 37.7794 0.852233 37.6899 0.808996 37.5852C0.76576 37.4805 0.754448 37.3653 0.776489 37.2541C0.798531 37.143 0.852937 37.0409 0.932827 36.9607C1.01272 36.8806 1.1145 36.826 1.22531 36.8039C1.33613 36.7818 1.45098 36.7931 1.55537 36.8365C1.65975 36.8799 1.74896 36.9533 1.81173 37.0476C1.8745 37.1418 1.90801 37.2526 1.90801 37.3659C1.90801 37.5179 1.84782 37.6637 1.74069 37.7711C1.63356 37.8786 1.48826 37.939 1.33676 37.939ZM1.33676 35.5958C1.22378 35.5958 1.11333 35.5621 1.01939 35.4992C0.925451 35.4362 0.852233 35.3467 0.808996 35.242C0.76576 35.1373 0.754448 35.0221 0.776489 34.9109C0.798531 34.7998 0.852937 34.6977 0.932827 34.6175C1.01272 34.5374 1.1145 34.4828 1.22531 34.4607C1.33613 34.4386 1.45098 34.4499 1.55537 34.4933C1.65975 34.5367 1.74896 34.6101 1.81173 34.7044C1.8745 34.7986 1.90801 34.9094 1.90801 35.0227C1.90801 35.1747 1.84782 35.3205 1.74069 35.4279C1.63356 35.5354 1.48826 35.5958 1.33676 35.5958ZM1.33676 33.2525C1.22378 33.2525 1.11333 33.2189 1.01939 33.156C0.925451 33.093 0.852233 33.0035 0.808996 32.8988C0.76576 32.7941 0.754448 32.6789 0.776489 32.5677C0.798531 32.4566 0.852937 32.3544 0.932827 32.2743C1.01272 32.1942 1.1145 32.1396 1.22531 32.1175C1.33613 32.0954 1.45098 32.1067 1.55537 32.1501C1.65975 32.1935 1.74896 32.2669 1.81173 32.3611C1.8745 32.4554 1.90801 32.5662 1.90801 32.6795C1.90801 32.8315 1.84782 32.9772 1.74069 33.0847C1.63356 33.1922 1.48826 33.2525 1.33676 33.2525ZM1.33676 30.9094C1.22378 30.9094 1.11333 30.8758 1.01939 30.8128C0.925451 30.7498 0.852233 30.6603 0.808996 30.5556C0.76576 30.4509 0.754448 30.3357 0.776489 30.2245C0.798531 30.1134 0.852937 30.0113 0.932827 29.9311C1.01272 29.851 1.1145 29.7964 1.22531 29.7743C1.33613 29.7522 1.45098 29.7635 1.55537 29.8069C1.65975 29.8503 1.74896 29.9237 1.81173 30.018C1.8745 30.1122 1.90801 30.223 1.90801 30.3363C1.90801 30.4883 1.84782 30.634 1.74069 30.7415C1.63356 30.849 1.48826 30.9094 1.33676 30.9094ZM3.67263 42.6648C3.55965 42.6648 3.4492 42.6312 3.35526 42.5682C3.26132 42.5052 3.1881 42.4158 3.14486 42.311C3.10163 42.2063 3.09032 42.0911 3.11236 41.98C3.1344 41.8688 3.1888 41.7667 3.26869 41.6865C3.34859 41.6064 3.45037 41.5518 3.56118 41.5297C3.67199 41.5076 3.78685 41.519 3.89123 41.5623C3.99562 41.6057 4.08483 41.6791 4.1476 41.7734C4.21037 41.8676 4.24387 41.9784 4.24387 42.0918C4.24387 42.2437 4.18369 42.3895 4.07656 42.497C3.96943 42.6044 3.82413 42.6648 3.67263 42.6648ZM3.67263 40.3007C3.55965 40.3007 3.4492 40.2671 3.35526 40.2041C3.26132 40.1412 3.1881 40.0517 3.14486 39.947C3.10163 39.8423 3.09032 39.727 3.11236 39.6159C3.1344 39.5047 3.1888 39.4026 3.26869 39.3225C3.34859 39.2423 3.45037 39.1878 3.56118 39.1656C3.67199 39.1435 3.78685 39.1549 3.89123 39.1983C3.99562 39.2416 4.08483 39.3151 4.1476 39.4093C4.21037 39.5035 4.24387 39.6143 4.24387 39.7277C4.24387 39.8796 4.18369 40.0254 4.07656 40.1329C3.96943 40.2403 3.82413 40.3007 3.67263 40.3007ZM3.67263 37.9366C3.55965 37.9366 3.4492 37.903 3.35526 37.8401C3.26132 37.7771 3.1881 37.6876 3.14486 37.5829C3.10163 37.4782 3.09032 37.363 3.11236 37.2518C3.1344 37.1406 3.1888 37.0385 3.26869 36.9584C3.34859 36.8783 3.45037 36.8237 3.56118 36.8016C3.67199 36.7794 3.78685 36.7908 3.89123 36.8342C3.99562 36.8776 4.08483 36.951 4.1476 37.0452C4.21037 37.1395 4.24387 37.2503 4.24387 37.3636C4.24387 37.5156 4.18369 37.6613 4.07656 37.7688C3.96943 37.8763 3.82413 37.9366 3.67263 37.9366ZM3.67263 35.5934C3.55965 35.5934 3.4492 35.5598 3.35526 35.4969C3.26132 35.4339 3.1881 35.3444 3.14486 35.2397C3.10163 35.135 3.09032 35.0198 3.11236 34.9086C3.1344 34.7974 3.1888 34.6953 3.26869 34.6152C3.34859 34.5351 3.45037 34.4805 3.56118 34.4584C3.67199 34.4363 3.78685 34.4476 3.89123 34.491C3.99562 34.5343 4.08483 34.6078 4.1476 34.702C4.21037 34.7963 4.24387 34.9071 4.24387 35.0204C4.24387 35.1724 4.18369 35.3181 4.07656 35.4256C3.96943 35.5331 3.82413 35.5934 3.67263 35.5934ZM3.67263 33.2502C3.55965 33.2502 3.4492 33.2166 3.35526 33.1537C3.26132 33.0907 3.1881 33.0012 3.14486 32.8965C3.10163 32.7918 3.09032 32.6766 3.11236 32.5654C3.1344 32.4542 3.1888 32.3521 3.26869 32.272C3.34859 32.1918 3.45037 32.1373 3.56118 32.1152C3.67199 32.0931 3.78685 32.1044 3.89123 32.1478C3.99562 32.1911 4.08483 32.2646 4.1476 32.3588C4.21037 32.4531 4.24387 32.5639 4.24387 32.6772C4.24387 32.8292 4.18369 32.9749 4.07656 33.0824C3.96943 33.1899 3.82413 33.2502 3.67263 33.2502ZM3.67263 30.907C3.55965 30.907 3.4492 30.8734 3.35526 30.8105C3.26132 30.7475 3.1881 30.658 3.14486 30.5533C3.10163 30.4486 3.09032 30.3334 3.11236 30.2222C3.1344 30.111 3.1888 30.0089 3.26869 29.9288C3.34859 29.8486 3.45037 29.7941 3.56118 29.772C3.67199 29.7499 3.78685 29.7612 3.89123 29.8046C3.99562 29.848 4.08483 29.9214 4.1476 30.0156C4.21037 30.1099 4.24387 30.2207 4.24387 30.334C4.24387 30.486 4.18369 30.6317 4.07656 30.7392C3.96943 30.8467 3.82413 30.907 3.67263 30.907ZM6.00849 42.6625C5.89551 42.6625 5.78507 42.6289 5.69113 42.5659C5.59719 42.5029 5.52397 42.4134 5.48073 42.3087C5.4375 42.204 5.42618 42.0888 5.44823 41.9776C5.47027 41.8665 5.52467 41.7644 5.60456 41.6842C5.68445 41.6041 5.78624 41.5495 5.89705 41.5274C6.00786 41.5053 6.12272 41.5166 6.2271 41.56C6.33148 41.6034 6.4207 41.6768 6.48347 41.7711C6.54624 41.8653 6.57974 41.9761 6.57974 42.0894C6.57974 42.2414 6.51956 42.3872 6.41243 42.4946C6.3053 42.6021 6.16 42.6625 6.00849 42.6625ZM6.00849 40.2984C5.89551 40.2984 5.78507 40.2648 5.69113 40.2018C5.59719 40.1389 5.52397 40.0494 5.48073 39.9447C5.4375 39.8399 5.42618 39.7247 5.44823 39.6136C5.47027 39.5024 5.52467 39.4003 5.60456 39.3202C5.68445 39.24 5.78624 39.1854 5.89705 39.1633C6.00786 39.1412 6.12272 39.1526 6.2271 39.1959C6.33148 39.2393 6.4207 39.3128 6.48347 39.407C6.54624 39.5012 6.57974 39.612 6.57974 39.7253C6.57974 39.8773 6.51956 40.0231 6.41243 40.1306C6.3053 40.238 6.16 40.2984 6.00849 40.2984ZM6.00849 37.9343C5.89551 37.9343 5.78507 37.9007 5.69113 37.8377C5.59719 37.7748 5.52397 37.6853 5.48073 37.5806C5.4375 37.4759 5.42618 37.3606 5.44823 37.2495C5.47027 37.1383 5.52467 37.0362 5.60456 36.9561C5.68445 36.8759 5.78624 36.8214 5.89705 36.7992C6.00786 36.7771 6.12272 36.7885 6.2271 36.8319C6.33148 36.8752 6.4207 36.9487 6.48347 37.0429C6.54624 37.1372 6.57974 37.2479 6.57974 37.3613C6.57974 37.5133 6.51956 37.659 6.41243 37.7665C6.3053 37.8739 6.16 37.9343 6.00849 37.9343ZM6.00849 35.5911C5.89551 35.5911 5.78507 35.5575 5.69113 35.4945C5.59719 35.4316 5.52397 35.3421 5.48073 35.2374C5.4375 35.1327 5.42618 35.0174 5.44823 34.9063C5.47027 34.7951 5.52467 34.693 5.60456 34.6129C5.68445 34.5327 5.78624 34.4782 5.89705 34.4561C6.00786 34.4339 6.12272 34.4453 6.2271 34.4887C6.33148 34.532 6.4207 34.6055 6.48347 34.6997C6.54624 34.7939 6.57974 34.9047 6.57974 35.0181C6.57974 35.17 6.51956 35.3158 6.41243 35.4233C6.3053 35.5307 6.16 35.5911 6.00849 35.5911ZM6.00849 33.2479C5.89551 33.2479 5.78507 33.2143 5.69113 33.1513C5.59719 33.0884 5.52397 32.9989 5.48073 32.8942C5.4375 32.7895 5.42618 32.6742 5.44823 32.5631C5.47027 32.4519 5.52467 32.3498 5.60456 32.2697C5.68445 32.1895 5.78624 32.135 5.89705 32.1128C6.00786 32.0907 6.12272 32.1021 6.2271 32.1455C6.33148 32.1888 6.4207 32.2623 6.48347 32.3565C6.54624 32.4507 6.57974 32.5615 6.57974 32.6749C6.57974 32.8269 6.51956 32.9726 6.41243 33.0801C6.3053 33.1875 6.16 33.2479 6.00849 33.2479ZM6.00849 30.9047C5.89551 30.9047 5.78507 30.8711 5.69113 30.8081C5.59719 30.7452 5.52397 30.6557 5.48073 30.551C5.4375 30.4463 5.42618 30.331 5.44823 30.2199C5.47027 30.1087 5.52467 30.0066 5.60456 29.9265C5.68445 29.8463 5.78624 29.7918 5.89705 29.7696C6.00786 29.7475 6.12272 29.7589 6.2271 29.8022C6.33148 29.8456 6.4207 29.9191 6.48347 30.0133C6.54624 30.1075 6.57974 30.2183 6.57974 30.3317C6.57974 30.4837 6.51956 30.6294 6.41243 30.7369C6.3053 30.8443 6.16 30.9047 6.00849 30.9047ZM8.34436 42.6601C8.23138 42.6601 8.12094 42.6265 8.027 42.5636C7.93305 42.5006 7.85984 42.4111 7.8166 42.3064C7.77336 42.2017 7.76205 42.0865 7.78409 41.9753C7.80613 41.8642 7.86054 41.7621 7.94043 41.6819C8.02032 41.6018 8.12211 41.5472 8.23292 41.5251C8.34373 41.503 8.45859 41.5143 8.56297 41.5577C8.66735 41.6011 8.75657 41.6745 8.81934 41.7687C8.88211 41.863 8.91561 41.9738 8.91561 42.0871C8.91561 42.2391 8.85542 42.3848 8.74829 42.4923C8.64117 42.5998 8.49587 42.6601 8.34436 42.6601ZM8.34436 40.2961C8.23138 40.2961 8.12094 40.2625 8.027 40.1995C7.93305 40.1365 7.85984 40.047 7.8166 39.9423C7.77336 39.8376 7.76205 39.7224 7.78409 39.6112C7.80613 39.5001 7.86054 39.398 7.94043 39.3178C8.02032 39.2377 8.12211 39.1831 8.23292 39.161C8.34373 39.1389 8.45859 39.1502 8.56297 39.1936C8.66735 39.237 8.75657 39.3104 8.81934 39.4047C8.88211 39.4989 8.91561 39.6097 8.91561 39.723C8.91561 39.875 8.85542 40.0208 8.74829 40.1282C8.64117 40.2357 8.49587 40.2961 8.34436 40.2961ZM8.34436 37.932C8.23138 37.932 8.12094 37.8984 8.027 37.8354C7.93305 37.7725 7.85984 37.683 7.8166 37.5782C7.77336 37.4735 7.76205 37.3583 7.78409 37.2472C7.80613 37.136 7.86054 37.0339 7.94043 36.9538C8.02032 36.8736 8.12211 36.819 8.23292 36.7969C8.34373 36.7748 8.45859 36.7862 8.56297 36.8295C8.66735 36.8729 8.75657 36.9463 8.81934 37.0406C8.88211 37.1348 8.91561 37.2456 8.91561 37.359C8.91561 37.5109 8.85542 37.6567 8.74829 37.7641C8.64117 37.8716 8.49587 37.932 8.34436 37.932ZM8.34436 35.5888C8.23138 35.5888 8.12094 35.5552 8.027 35.4922C7.93305 35.4293 7.85984 35.3398 7.8166 35.2351C7.77336 35.1303 7.76205 35.0151 7.78409 34.904C7.80613 34.7928 7.86054 34.6907 7.94043 34.6106C8.02032 34.5304 8.12211 34.4758 8.23292 34.4537C8.34373 34.4316 8.45859 34.443 8.56297 34.4863C8.66735 34.5297 8.75657 34.6032 8.81934 34.6974C8.88211 34.7916 8.91561 34.9024 8.91561 35.0158C8.91561 35.1677 8.85542 35.3135 8.74829 35.421C8.64117 35.5284 8.49587 35.5888 8.34436 35.5888ZM8.34436 33.2456C8.23138 33.2456 8.12094 33.212 8.027 33.149C7.93305 33.0861 7.85984 32.9966 7.8166 32.8919C7.77336 32.7871 7.76205 32.6719 7.78409 32.5608C7.80613 32.4496 7.86054 32.3475 7.94043 32.2674C8.02032 32.1872 8.12211 32.1326 8.23292 32.1105C8.34373 32.0884 8.45859 32.0998 8.56297 32.1431C8.66735 32.1865 8.75657 32.26 8.81934 32.3542C8.88211 32.4484 8.91561 32.5592 8.91561 32.6725C8.91561 32.8245 8.85542 32.9703 8.74829 33.0778C8.64117 33.1852 8.49587 33.2456 8.34436 33.2456ZM8.34436 30.9024C8.23138 30.9024 8.12094 30.8688 8.027 30.8058C7.93305 30.7428 7.85984 30.6534 7.8166 30.5486C7.77336 30.4439 7.76205 30.3287 7.78409 30.2176C7.80613 30.1064 7.86054 30.0043 7.94043 29.9241C8.02032 29.844 8.12211 29.7894 8.23292 29.7673C8.34373 29.7452 8.45859 29.7566 8.56297 29.7999C8.66735 29.8433 8.75657 29.9167 8.81934 30.011C8.88211 30.1052 8.91561 30.216 8.91561 30.3294C8.91561 30.4813 8.85542 30.6271 8.74829 30.7346C8.64117 30.842 8.49587 30.9024 8.34436 30.9024ZM10.6802 42.6578C10.5672 42.6578 10.4568 42.6242 10.3629 42.5613C10.2689 42.4983 10.1957 42.4088 10.1525 42.3041C10.1092 42.1994 10.0979 42.0842 10.12 41.973C10.142 41.8618 10.1964 41.7597 10.2763 41.6796C10.3562 41.5994 10.458 41.5449 10.5688 41.5228C10.6796 41.5007 10.7945 41.512 10.8988 41.5554C11.0032 41.5987 11.0924 41.6722 11.1552 41.7664C11.218 41.8607 11.2515 41.9715 11.2515 42.0848C11.2515 42.2368 11.1913 42.3825 11.0842 42.49C10.977 42.5975 10.8317 42.6578 10.6802 42.6578ZM10.6802 40.2938C10.5672 40.2938 10.4568 40.2601 10.3629 40.1972C10.2689 40.1342 10.1957 40.0447 10.1525 39.94C10.1092 39.8353 10.0979 39.7201 10.12 39.6089C10.142 39.4978 10.1964 39.3957 10.2763 39.3155C10.3562 39.2354 10.458 39.1808 10.5688 39.1587C10.6796 39.1366 10.7945 39.1479 10.8988 39.1913C11.0032 39.2347 11.0924 39.3081 11.1552 39.4024C11.218 39.4966 11.2515 39.6074 11.2515 39.7207C11.2515 39.8727 11.1913 40.0185 11.0842 40.1259C10.977 40.2334 10.8317 40.2938 10.6802 40.2938ZM10.6802 37.9297C10.5672 37.9297 10.4568 37.8961 10.3629 37.8331C10.2689 37.7701 10.1957 37.6806 10.1525 37.5759C10.1092 37.4712 10.0979 37.356 10.12 37.2448C10.142 37.1337 10.1964 37.0316 10.2763 36.9514C10.3562 36.8713 10.458 36.8167 10.5688 36.7946C10.6796 36.7725 10.7945 36.7838 10.8988 36.8272C11.0032 36.8706 11.0924 36.944 11.1552 37.0383C11.218 37.1325 11.2515 37.2433 11.2515 37.3566C11.2515 37.5086 11.1913 37.6544 11.0842 37.7618C10.977 37.8693 10.8317 37.9297 10.6802 37.9297ZM10.6802 35.5865C10.5672 35.5865 10.4568 35.5529 10.3629 35.4899C10.2689 35.4269 10.1957 35.3374 10.1525 35.2327C10.1092 35.128 10.0979 35.0128 10.12 34.9016C10.142 34.7905 10.1964 34.6884 10.2763 34.6082C10.3562 34.5281 10.458 34.4735 10.5688 34.4514C10.6796 34.4293 10.7945 34.4406 10.8988 34.484C11.0032 34.5274 11.0924 34.6008 11.1552 34.6951C11.218 34.7893 11.2515 34.9001 11.2515 35.0134C11.2515 35.1654 11.1913 35.3112 11.0842 35.4186C10.977 35.5261 10.8317 35.5865 10.6802 35.5865ZM10.6802 33.2433C10.5672 33.2433 10.4568 33.2097 10.3629 33.1467C10.2689 33.0837 10.1957 32.9942 10.1525 32.8895C10.1092 32.7848 10.0979 32.6696 10.12 32.5584C10.142 32.4473 10.1964 32.3452 10.2763 32.265C10.3562 32.1849 10.458 32.1303 10.5688 32.1082C10.6796 32.0861 10.7945 32.0974 10.8988 32.1408C11.0032 32.1842 11.0924 32.2576 11.1552 32.3519C11.218 32.4461 11.2515 32.5569 11.2515 32.6702C11.2515 32.8222 11.1913 32.968 11.0842 33.0754C10.977 33.1829 10.8317 33.2433 10.6802 33.2433ZM10.6802 30.9001C10.5672 30.9001 10.4568 30.8665 10.3629 30.8035C10.2689 30.7405 10.1957 30.651 10.1525 30.5463C10.1092 30.4416 10.0979 30.3264 10.12 30.2152C10.142 30.1041 10.1964 30.002 10.2763 29.9218C10.3562 29.8417 10.458 29.7871 10.5688 29.765C10.6796 29.7429 10.7945 29.7542 10.8988 29.7976C11.0032 29.841 11.0924 29.9144 11.1552 30.0087C11.218 30.1029 11.2515 30.2137 11.2515 30.327C11.2515 30.479 11.1913 30.6248 11.0842 30.7322C10.977 30.8397 10.8317 30.9001 10.6802 30.9001ZM13.0161 42.6555C12.9031 42.6555 12.7927 42.6219 12.6987 42.5589C12.6048 42.496 12.5316 42.4065 12.4883 42.3018C12.4451 42.1971 12.4338 42.0818 12.4558 41.9707C12.4779 41.8595 12.5323 41.7574 12.6122 41.6773C12.6921 41.5971 12.7938 41.5426 12.9047 41.5204C13.0155 41.4983 13.1303 41.5097 13.2347 41.5531C13.3391 41.5964 13.4283 41.6699 13.4911 41.7641C13.5538 41.8583 13.5873 41.9691 13.5873 42.0825C13.5873 42.2345 13.5272 42.3802 13.42 42.4877C13.3129 42.5951 13.1676 42.6555 13.0161 42.6555ZM13.0161 40.2914C12.9031 40.2914 12.7927 40.2578 12.6987 40.1949C12.6048 40.1319 12.5316 40.0424 12.4883 39.9377C12.4451 39.833 12.4338 39.7178 12.4558 39.6066C12.4779 39.4954 12.5323 39.3933 12.6122 39.3132C12.6921 39.2331 12.7938 39.1785 12.9047 39.1564C13.0155 39.1342 13.1303 39.1456 13.2347 39.189C13.3391 39.2324 13.4283 39.3058 13.4911 39.4C13.5538 39.4943 13.5873 39.6051 13.5873 39.7184C13.5873 39.8704 13.5272 40.0161 13.42 40.1236C13.3129 40.2311 13.1676 40.2914 13.0161 40.2914ZM13.0161 37.9274C12.9031 37.9274 12.7927 37.8937 12.6987 37.8308C12.6048 37.7678 12.5316 37.6783 12.4883 37.5736C12.4451 37.4689 12.4338 37.3537 12.4558 37.2425C12.4779 37.1314 12.5323 37.0292 12.6122 36.9491C12.6921 36.869 12.7938 36.8144 12.9047 36.7923C13.0155 36.7702 13.1303 36.7815 13.2347 36.8249C13.3391 36.8683 13.4283 36.9417 13.4911 37.0359C13.5538 37.1302 13.5873 37.241 13.5873 37.3543C13.5873 37.5063 13.5272 37.652 13.42 37.7595C13.3129 37.867 13.1676 37.9274 13.0161 37.9274ZM13.0161 35.5842C12.9031 35.5842 12.7927 35.5506 12.6987 35.4876C12.6048 35.4246 12.5316 35.3351 12.4883 35.2304C12.4451 35.1257 12.4338 35.0105 12.4558 34.8993C12.4779 34.7882 12.5323 34.6861 12.6122 34.6059C12.6921 34.5258 12.7938 34.4712 12.9047 34.4491C13.0155 34.427 13.1303 34.4383 13.2347 34.4817C13.3391 34.5251 13.4283 34.5985 13.4911 34.6928C13.5538 34.787 13.5873 34.8978 13.5873 35.0111C13.5873 35.1631 13.5272 35.3089 13.42 35.4163C13.3129 35.5238 13.1676 35.5842 13.0161 35.5842ZM13.0161 33.241C12.9031 33.241 12.7927 33.2073 12.6987 33.1444C12.6048 33.0814 12.5316 32.9919 12.4883 32.8872C12.4451 32.7825 12.4338 32.6673 12.4558 32.5561C12.4779 32.445 12.5323 32.3429 12.6122 32.2627C12.6921 32.1826 12.7938 32.128 12.9047 32.1059C13.0155 32.0838 13.1303 32.0951 13.2347 32.1385C13.3391 32.1819 13.4283 32.2553 13.4911 32.3496C13.5538 32.4438 13.5873 32.5546 13.5873 32.6679C13.5873 32.8199 13.5272 32.9657 13.42 33.0731C13.3129 33.1806 13.1676 33.241 13.0161 33.241ZM13.0161 30.8977C12.9031 30.8977 12.7927 30.8641 12.6987 30.8012C12.6048 30.7382 12.5316 30.6487 12.4883 30.544C12.4451 30.4393 12.4338 30.3241 12.4558 30.2129C12.4779 30.1018 12.5323 29.9997 12.6122 29.9195C12.6921 29.8394 12.7938 29.7848 12.9047 29.7627C13.0155 29.7406 13.1303 29.7519 13.2347 29.7953C13.3391 29.8387 13.4283 29.9121 13.4911 30.0063C13.5538 30.1006 13.5873 30.2114 13.5873 30.3247C13.5873 30.4767 13.5272 30.6224 13.42 30.7299C13.3129 30.8374 13.1676 30.8977 13.0161 30.8977Z" fill="white"/>
<path d="M36.1712 29.0417H35.2068L28.56 35.7094V36.6769L36.1712 29.0417Z" fill="white"/>
<path d="M37.737 29.0417H36.7795L28.5647 37.2824V38.2498L37.737 29.0417Z" fill="white"/>
<path d="M40.8707 29.0417H39.9063L28.56 40.4237V41.3911L40.8707 29.0417Z" fill="white"/>
<path d="M39.3027 29.0417H38.3383L28.5577 38.853V39.8205L39.3027 29.0417Z" fill="white"/>
<path d="M31.4741 29.0417H30.5097L28.56 30.9975V31.965L31.4741 29.0417Z" fill="white"/>
<path d="M34.6056 29.0417H33.6411L28.5531 34.1457V35.1039L34.6056 29.0417Z" fill="white"/>
<path d="M42.4365 29.0417H41.472L28.56 41.9943V42.9617L42.4365 29.0417Z" fill="white"/>
<path d="M29.906 29.0417H28.9416L28.5577 29.4269V30.3943L29.906 29.0417Z" fill="white"/>
<path d="M33.0398 29.0417H32.0754L28.56 32.5681V33.5356L33.0398 29.0417Z" fill="white"/>
<path d="M42.8343 36.4959V35.5285L35.0265 43.3608H35.9909L42.8343 36.4959Z" fill="white"/>
<path d="M42.8366 39.6372V38.6697L38.1602 43.3608H39.1246L42.8366 39.6372Z" fill="white"/>
<path d="M42.8366 41.2079V40.2404L39.726 43.3608H40.6904L42.8366 41.2079Z" fill="white"/>
<path d="M42.8342 42.7808V41.8226L41.2893 43.3724H42.2538L42.8342 42.7808Z" fill="white"/>
<path d="M42.8343 34.9253V33.9578L33.4584 43.3631H34.4228L42.8343 34.9253Z" fill="white"/>
<path d="M42.8343 38.0666V37.0991L36.5899 43.3631H37.5543L42.8343 38.0666Z" fill="white"/>
<path d="M42.8366 31.784V30.8142L30.3293 43.3608H31.2937L42.8366 31.784Z" fill="white"/>
<path d="M42.8343 33.3546V32.3872L31.895 43.3562H32.8594L42.8343 33.3546Z" fill="white"/>
<path d="M28.7612 43.3608H29.7256L42.8343 30.211V29.2436L28.7612 43.3608Z" fill="white"/>
</g>
</g>
<defs>
<clipPath id="clip0_308_549">
<rect width="80" height="58" fill="white"/>
</clipPath>
</defs>
</svg>
