<?xml version="1.0" encoding="UTF-8"?><svg id="Capa_2" xmlns="http://www.w3.org/2000/svg" viewBox="0 0 186.6 319.64"><defs><style>.cls-1{fill:#fff;stroke-width:0px;}</style></defs><g id="Capa_1-2"><path class="cls-1" d="M80.68,73.3c-26.61,0-48.35,21.74-48.35,48.49v80.82c0,26.61,21.74,48.35,48.35,48.35s48.49-21.74,48.49-48.35v-80.82c0-26.75-21.74-48.49-48.49-48.49ZM113.01,202.62c0,18.02-14.16,32.19-32.33,32.19s-32.19-14.16-32.19-32.19v-80.82c0-18.02,14.16-32.33,32.19-32.33s32.33,14.3,32.33,32.33v80.82Z"/><path class="cls-1" d="M156.77,14.23c16.62,12.52,26.46,28.52,29.67,48.54.66,4.15-.88,7.41-3.87,8.26-3.05.86-6.34-1.2-7.86-5.03-.43-1.11-.74-2.26-.94-3.43-5.59-31.24-33.59-52.64-65.31-49.85-3.07.27-5.93-.11-8.37-2.16-1.7-1.43-2.58-3.26-2.16-5.51.43-2.32,2.07-3.52,4.18-4.15.93-.25,1.88-.42,2.85-.49,19.22-1.91,36.57,3.06,51.8,13.83Z"/><path class="cls-1" d="M143.67,34.62c11.39,8.7,17.75,20.09,21.12,33.32.42,1.66.31,3.41-.14,5.08-.57,2.12-1.68,3.86-3.96,4.38-2.34.53-4.23-.47-5.73-2.19-1.61-1.85-2.23-4.13-2.73-6.48-3.97-18.77-20.55-32.01-39.56-31.62-1.7.03-3.4.25-5.11.4-2.61.23-5.03-.22-7.08-1.98-2.67-2.3-2.56-5.89.21-8.04,1.42-1.09,3.13-1.76,4.91-1.94,13.93-1.55,26.85,1.1,38.06,9.06Z"/><path class="cls-1" d="M130.93,56.54c5.91,4.5,9.77,11.17,10.71,18.54.34,2.59.09,5.04-2.13,6.87-2.83,2.34-7.27,1.15-8.04-2.83-2.4-12.41-12.77-20.08-25.52-19.3-3.56.22-5.09-.67-5.82-3.39-.73-2.71.6-5.42,3.38-6.75,1.5-.72,3.11-.97,4.75-1.05,7.25-.37,14.55,1.95,22.67,7.91Z"/><path class="cls-1" d="M96.98,120.05c-3.93,5.35-11.45,6.51-16.8,2.58-.03-.02-.06-.04-.09-.06-5.56-4.12-6.67-11.65-2.52-17.12,4.31-5.69,11.86-6.84,17.37-2.63,5.32,4.05,6.22,11.62,2.03,17.23Z"/><path class="cls-1" d="M160.37,215.54h-16.38c-6.25,29.52-33.35,51.59-63.3,51.59-35.76,0-64.52-28.75-64.52-64.52v-24.32c.14-4.58-4.43-8.73-9.01-8.3-3.86.43-7.15,4.15-7.15,8.15v24.46c0,41.63,31.9,76.25,72.67,80.25v20.6h-16.88c-4.29.14-7.87,4.29-7.72,8.44.14,4.29,4.29,7.87,8.44,7.72h48.49c4.29,0,8.15-3.86,8.15-8.01s-3.86-8.15-8.15-8.15h-16.16v-20.6c35.47-3.58,65.59-31.38,71.53-67.33Z"/></g></svg>