<svg width="99" height="58" viewBox="0 0 99 58" fill="none" xmlns="http://www.w3.org/2000/svg">
<g clip-path="url(#clip0_308_474)">
<path d="M97.4694 24.244H76.6367C76.4348 24.244 76.2349 24.2041 76.0486 24.1265C75.8622 24.0489 75.6931 23.9352 75.551 23.792C75.4089 23.6488 75.2966 23.4788 75.2207 23.292C75.1447 23.1052 75.1065 22.9052 75.1083 22.7035V2.73762C75.1065 2.53598 75.1447 2.33598 75.2207 2.14916C75.2966 1.96234 75.4089 1.7924 75.551 1.64917C75.6931 1.50594 75.8622 1.39225 76.0486 1.31466C76.2349 1.23708 76.4348 1.19714 76.6367 1.19714H97.4694C97.6713 1.19714 97.8712 1.23708 98.0575 1.31466C98.2439 1.39225 98.413 1.50594 98.5551 1.64917C98.6972 1.7924 98.8095 1.96234 98.8854 2.14916C98.9614 2.33598 98.9996 2.53598 98.9978 2.73762V22.7035C98.9996 22.9052 98.9614 23.1052 98.8854 23.292C98.8095 23.4788 98.6972 23.6488 98.5551 23.792C98.413 23.9352 98.2439 24.0489 98.0575 24.1265C97.8712 24.2041 97.6713 24.244 97.4694 24.244Z" fill="white"/>
<path d="M97.4694 56.8005H76.6367C76.4348 56.8005 76.2349 56.7606 76.0486 56.683C75.8622 56.6054 75.6931 56.4917 75.551 56.3485C75.4089 56.2053 75.2966 56.0353 75.2207 55.8485C75.1447 55.6617 75.1065 55.4617 75.1083 55.2601V35.3011C75.1065 35.0995 75.1447 34.8995 75.2207 34.7126C75.2966 34.5258 75.4089 34.3559 75.551 34.2127C75.6931 34.0694 75.8622 33.9557 76.0486 33.8781C76.2349 33.8006 76.4348 33.7606 76.6367 33.7606H97.4694C97.6713 33.7606 97.8712 33.8006 98.0575 33.8781C98.2439 33.9557 98.413 34.0694 98.5551 34.2127C98.6972 34.3559 98.8095 34.5258 98.8854 34.7126C98.9614 34.8995 98.9996 35.0995 98.9978 35.3011V55.2531C99.0005 55.4553 98.963 55.6561 98.8875 55.8437C98.8119 56.0313 98.6998 56.2021 98.5576 56.3461C98.4154 56.49 98.2459 56.6044 98.0591 56.6824C97.8723 56.7604 97.6719 56.8006 97.4694 56.8005Z" fill="white"/>
<path d="M36.1117 0V58C43.8121 58 51.1971 54.9446 56.642 49.5061C62.087 44.0675 65.146 36.6913 65.146 29C65.146 21.3087 62.087 13.9325 56.642 8.4939C51.1971 3.05535 43.8121 0 36.1117 0Z" fill="white"/>
<path d="M0 0V14.5162C3.7976 14.5839 7.41618 16.1408 10.0742 18.8508C12.7322 21.5608 14.2163 25.2063 14.2059 29C14.2211 32.7951 12.7386 36.4435 10.0795 39.1545C7.42053 41.8655 3.79915 43.4209 0 43.4838L0 58C7.63751 57.9198 14.9333 54.8256 20.2952 49.3926C25.6572 43.9596 28.6501 36.6289 28.6209 29C28.6532 21.3702 25.6612 14.0377 20.2986 8.60405C14.936 3.17039 7.63847 0.0771619 0 0Z" fill="white"/>
</g>
<defs>
<clipPath id="clip0_308_474">
<rect width="99" height="58" fill="white"/>
</clipPath>
</defs>
</svg>
