<svg width="109" height="57" viewBox="0 0 109 57" fill="none" xmlns="http://www.w3.org/2000/svg">
<g clip-path="url(#clip0_308_613)">
<mask id="mask0_308_613" style="mask-type:luminance" maskUnits="userSpaceOnUse" x="0" y="0" width="109" height="57">
<path d="M109 0H0V57H109V0Z" fill="white"/>
</mask>
<g mask="url(#mask0_308_613)">
<path d="M80.5999 0V57C88.1351 56.9323 95.3387 53.8998 100.643 48.5623C105.948 43.2249 108.923 36.0145 108.923 28.5C108.923 20.9855 105.948 13.7751 100.643 8.43765C95.3387 3.10022 88.1351 0.0677194 80.5999 0Z" fill="white"/>
<path d="M20.9746 0V32.5288C25.3003 32.5288 29.4488 30.8152 32.5075 27.765C35.5663 24.7149 37.2846 20.578 37.2846 16.2644C37.2846 11.9508 35.5663 7.81389 32.5075 4.76373C29.4488 1.71356 25.3003 0 20.9746 0Z" fill="white"/>
<path d="M44.7671 0V14.2633C48.5086 14.3306 52.0741 15.86 54.6962 18.5223C57.3184 21.1847 58.7875 24.7672 58.7875 28.4988C58.7875 32.2305 57.3184 35.813 54.6962 38.4753C52.0741 41.1377 48.5086 42.6671 44.7671 42.7344V56.9954C52.2691 56.8786 59.4243 53.8248 64.6881 48.4931C69.9519 43.1615 72.9022 35.9796 72.9022 28.4977C72.9022 21.0158 69.9519 13.8339 64.6881 8.50223C59.4243 3.17058 52.2691 0.116783 44.7671 0Z" fill="white"/>
<path d="M11.9868 32.5287H2.26319C1.66296 32.5287 1.0873 32.7665 0.662874 33.1898C0.238443 33.613 0 34.1871 0 34.7856L0 54.7153C0 55.3139 0.238443 55.8879 0.662874 56.3112C1.0873 56.7344 1.66296 56.9722 2.26319 56.9722H11.9868C12.587 56.9722 13.1627 56.7344 13.5871 56.3112C14.0115 55.8879 14.25 55.3139 14.25 54.7153V34.7856C14.25 34.1871 14.0115 33.613 13.5871 33.1898C13.1627 32.7665 12.587 32.5287 11.9868 32.5287Z" fill="white"/>
</g>
</g>
<defs>
<clipPath id="clip0_308_613">
<rect width="109" height="57" fill="white"/>
</clipPath>
</defs>
</svg>
